<svg xmlns="http://www.w3.org/2000/svg" width="41" height="41"
  viewBox="0 0 41 41" shape-rendering="crispEdges" role="img" aria-label="Application QR code">
  <rect width="41" height="41" fill="#f7f2e6"/>
  <g transform="translate(4 4)" fill="#020202"><rect x="2" y="2" width="7" height="1"/><rect x="12" y="2" width="1" height="1"/><rect x="14" y="2" width="1" height="1"/><rect x="16" y="2" width="1" height="1"/><rect x="18" y="2" width="1" height="1"/><rect x="21" y="2" width="2" height="1"/><rect x="24" y="2" width="7" height="1"/><rect x="2" y="3" width="1" height="1"/><rect x="8" y="3" width="1" height="1"/><rect x="10" y="3" width="1" height="1"/><rect x="12" y="3" width="1" height="1"/><rect x="17" y="3" width="1" height="1"/><rect x="22" y="3" width="1" height="1"/><rect x="24" y="3" width="1" height="1"/><rect x="30" y="3" width="1" height="1"/><rect x="2" y="4" width="1" height="1"/><rect x="4" y="4" width="3" height="1"/><rect x="8" y="4" width="1" height="1"/><rect x="14" y="4" width="1" height="1"/><rect x="17" y="4" width="1" height="1"/><rect x="20" y="4" width="1" height="1"/><rect x="24" y="4" width="1" height="1"/><rect x="26" y="4" width="3" height="1"/><rect x="30" y="4" width="1" height="1"/><rect x="2" y="5" width="1" height="1"/><rect x="4" y="5" width="3" height="1"/><rect x="8" y="5" width="1" height="1"/><rect x="10" y="5" width="3" height="1"/><rect x="14" y="5" width="2" height="1"/><rect x="17" y="5" width="3" height="1"/><rect x="24" y="5" width="1" height="1"/><rect x="26" y="5" width="3" height="1"/><rect x="30" y="5" width="1" height="1"/><rect x="2" y="6" width="1" height="1"/><rect x="4" y="6" width="3" height="1"/><rect x="8" y="6" width="1" height="1"/><rect x="11" y="6" width="1" height="1"/><rect x="15" y="6" width="1" height="1"/><rect x="18" y="6" width="5" height="1"/><rect x="24" y="6" width="1" height="1"/><rect x="26" y="6" width="3" height="1"/><rect x="30" y="6" width="1" height="1"/><rect x="2" y="7" width="1" height="1"/><rect x="8" y="7" width="1" height="1"/><rect x="10" y="7" width="2" height="1"/><rect x="13" y="7" width="6" height="1"/><rect x="20" y="7" width="1" height="1"/><rect x="22" y="7" width="1" height="1"/><rect x="24" y="7" width="1" height="1"/><rect x="30" y="7" width="1" height="1"/><rect x="2" y="8" width="7" height="1"/><rect x="10" y="8" width="1" height="1"/><rect x="12" y="8" width="1" height="1"/><rect x="14" y="8" width="1" height="1"/><rect x="16" y="8" width="1" height="1"/><rect x="18" y="8" width="1" height="1"/><rect x="20" y="8" width="1" height="1"/><rect x="22" y="8" width="1" height="1"/><rect x="24" y="8" width="7" height="1"/><rect x="11" y="9" width="3" height="1"/><rect x="16" y="9" width="2" height="1"/><rect x="20" y="9" width="2" height="1"/><rect x="2" y="10" width="5" height="1"/><rect x="8" y="10" width="4" height="1"/><rect x="13" y="10" width="5" height="1"/><rect x="19" y="10" width="1" height="1"/><rect x="21" y="10" width="1" height="1"/><rect x="23" y="10" width="1" height="1"/><rect x="25" y="10" width="1" height="1"/><rect x="27" y="10" width="1" height="1"/><rect x="29" y="10" width="1" height="1"/><rect x="5" y="11" width="1" height="1"/><rect x="10" y="11" width="1" height="1"/><rect x="12" y="11" width="1" height="1"/><rect x="14" y="11" width="1" height="1"/><rect x="18" y="11" width="9" height="1"/><rect x="30" y="11" width="1" height="1"/><rect x="2" y="12" width="4" height="1"/><rect x="8" y="12" width="2" height="1"/><rect x="12" y="12" width="1" height="1"/><rect x="14" y="12" width="1" height="1"/><rect x="17" y="12" width="1" height="1"/><rect x="19" y="12" width="1" height="1"/><rect x="22" y="12" width="1" height="1"/><rect x="24" y="12" width="3" height="1"/><rect x="6" y="13" width="2" height="1"/><rect x="10" y="13" width="1" height="1"/><rect x="16" y="13" width="1" height="1"/><rect x="18" y="13" width="1" height="1"/><rect x="21" y="13" width="1" height="1"/><rect x="23" y="13" width="2" height="1"/><rect x="27" y="13" width="1" height="1"/><rect x="29" y="13" width="1" height="1"/><rect x="2" y="14" width="2" height="1"/><rect x="8" y="14" width="1" height="1"/><rect x="11" y="14" width="6" height="1"/><rect x="19" y="14" width="1" height="1"/><rect x="27" y="14" width="2" height="1"/><rect x="2" y="15" width="2" height="1"/><rect x="7" y="15" width="1" height="1"/><rect x="10" y="15" width="2" height="1"/><rect x="13" y="15" width="1" height="1"/><rect x="16" y="15" width="1" height="1"/><rect x="19" y="15" width="8" height="1"/><rect x="30" y="15" width="1" height="1"/><rect x="2" y="16" width="1" height="1"/><rect x="4" y="16" width="2" height="1"/><rect x="8" y="16" width="2" height="1"/><rect x="17" y="16" width="1" height="1"/><rect x="19" y="16" width="1" height="1"/><rect x="22" y="16" width="3" height="1"/><rect x="27" y="16" width="2" height="1"/><rect x="2" y="17" width="1" height="1"/><rect x="4" y="17" width="4" height="1"/><rect x="12" y="17" width="1" height="1"/><rect x="17" y="17" width="2" height="1"/><rect x="20" y="17" width="1" height="1"/><rect x="25" y="17" width="2" height="1"/><rect x="29" y="17" width="1" height="1"/><rect x="2" y="18" width="2" height="1"/><rect x="8" y="18" width="9" height="1"/><rect x="19" y="18" width="2" height="1"/><rect x="27" y="18" width="2" height="1"/><rect x="2" y="19" width="1" height="1"/><rect x="4" y="19" width="1" height="1"/><rect x="7" y="19" width="1" height="1"/><rect x="10" y="19" width="1" height="1"/><rect x="13" y="19" width="1" height="1"/><rect x="16" y="19" width="1" height="1"/><rect x="18" y="19" width="5" height="1"/><rect x="24" y="19" width="3" height="1"/><rect x="28" y="19" width="1" height="1"/><rect x="30" y="19" width="1" height="1"/><rect x="2" y="20" width="1" height="1"/><rect x="7" y="20" width="5" height="1"/><rect x="14" y="20" width="1" height="1"/><rect x="17" y="20" width="3" height="1"/><rect x="28" y="20" width="1" height="1"/><rect x="2" y="21" width="1" height="1"/><rect x="4" y="21" width="1" height="1"/><rect x="7" y="21" width="1" height="1"/><rect x="9" y="21" width="1" height="1"/><rect x="12" y="21" width="1" height="1"/><rect x="17" y="21" width="2" height="1"/><rect x="20" y="21" width="1" height="1"/><rect x="23" y="21" width="1" height="1"/><rect x="25" y="21" width="1" height="1"/><rect x="29" y="21" width="1" height="1"/><rect x="2" y="22" width="7" height="1"/><rect x="10" y="22" width="3" height="1"/><rect x="15" y="22" width="3" height="1"/><rect x="19" y="22" width="1" height="1"/><rect x="21" y="22" width="6" height="1"/><rect x="28" y="22" width="3" height="1"/><rect x="10" y="23" width="4" height="1"/><rect x="15" y="23" width="1" height="1"/><rect x="18" y="23" width="1" height="1"/><rect x="22" y="23" width="1" height="1"/><rect x="26" y="23" width="5" height="1"/><rect x="2" y="24" width="7" height="1"/><rect x="10" y="24" width="2" height="1"/><rect x="14" y="24" width="1" height="1"/><rect x="16" y="24" width="4" height="1"/><rect x="21" y="24" width="2" height="1"/><rect x="24" y="24" width="1" height="1"/><rect x="26" y="24" width="3" height="1"/><rect x="2" y="25" width="1" height="1"/><rect x="8" y="25" width="1" height="1"/><rect x="11" y="25" width="2" height="1"/><rect x="14" y="25" width="1" height="1"/><rect x="20" y="25" width="3" height="1"/><rect x="26" y="25" width="1" height="1"/><rect x="29" y="25" width="1" height="1"/><rect x="2" y="26" width="1" height="1"/><rect x="4" y="26" width="3" height="1"/><rect x="8" y="26" width="1" height="1"/><rect x="10" y="26" width="8" height="1"/><rect x="19" y="26" width="1" height="1"/><rect x="22" y="26" width="5" height="1"/><rect x="28" y="26" width="2" height="1"/><rect x="2" y="27" width="1" height="1"/><rect x="4" y="27" width="3" height="1"/><rect x="8" y="27" width="1" height="1"/><rect x="10" y="27" width="2" height="1"/><rect x="13" y="27" width="1" height="1"/><rect x="15" y="27" width="2" height="1"/><rect x="18" y="27" width="1" height="1"/><rect x="20" y="27" width="2" height="1"/><rect x="27" y="27" width="2" height="1"/><rect x="30" y="27" width="1" height="1"/><rect x="2" y="28" width="1" height="1"/><rect x="4" y="28" width="3" height="1"/><rect x="8" y="28" width="1" height="1"/><rect x="10" y="28" width="1" height="1"/><rect x="14" y="28" width="1" height="1"/><rect x="17" y="28" width="1" height="1"/><rect x="21" y="28" width="9" height="1"/><rect x="2" y="29" width="1" height="1"/><rect x="8" y="29" width="1" height="1"/><rect x="10" y="29" width="1" height="1"/><rect x="12" y="29" width="2" height="1"/><rect x="16" y="29" width="1" height="1"/><rect x="22" y="29" width="1" height="1"/><rect x="25" y="29" width="3" height="1"/><rect x="29" y="29" width="1" height="1"/><rect x="2" y="30" width="7" height="1"/><rect x="10" y="30" width="1" height="1"/><rect x="13" y="30" width="3" height="1"/><rect x="17" y="30" width="3" height="1"/><rect x="28" y="30" width="1" height="1"/></g>
</svg>
